HIERARCHY
ROOT Hips
{
	OFFSET	0.00	0.00	0.00
	CHANNELS 6 Xposition Yposition Zposition Zrotation Xrotation Yrotation
	JOINT LeftUpLeg
	{
		OFFSET	 0.126116	-0.014019	-0.065224
		CHANNELS 3 Zrotation Xrotation Yrotation
		JOINT LeftLeg
		{
			OFFSET	 0.000000	 0.000000	 0.569914
			CHANNELS 3 Zrotation Xrotation Yrotation
			JOINT LeftFoot
			{
				OFFSET	 0.000000	 0.000000	 0.544423
				CHANNELS 3 Zrotation Xrotation Yrotation
				JOINT LeftToeBase
				{
					OFFSET	 0.000000	 0.000000	 0.207117
					CHANNELS 3 Zrotation Xrotation Yrotation
					End Site
					{
						OFFSET	 0.000000	 0.000000	 0.207117
					}
				}
			}
		}
	}
	JOINT RightUpLeg
	{
		OFFSET	-0.124023	-0.008373	-0.065224
		CHANNELS 3 Zrotation Xrotation Yrotation
		JOINT RightLeg
		{
			OFFSET	 0.000000	 0.000000	 0.570047
			CHANNELS 3 Zrotation Xrotation Yrotation
			JOINT RightFoot
			{
				OFFSET	 0.000000	 0.000000	 0.544354
				CHANNELS 3 Zrotation Xrotation Yrotation
				JOINT RightToeBase
				{
					OFFSET	 0.000000	 0.000000	 0.207540
					CHANNELS 3 Zrotation Xrotation Yrotation
					End Site
					{
						OFFSET	 0.000000	 0.000000	 0.207540
					}
				}
			}
		}
	}
	JOINT Spine
	{
		OFFSET	 0.000184	-0.007763	 0.117403
		CHANNELS 3 Zrotation Xrotation Yrotation
		JOINT Spine1
		{
			OFFSET	 0.000000	 0.000000	 0.137269
			CHANNELS 3 Zrotation Xrotation Yrotation
			JOINT Spine2
			{
				OFFSET	 0.000000	 0.000000	 0.156879
				CHANNELS 3 Zrotation Xrotation Yrotation
				JOINT LeftShoulder
				{
					OFFSET	 0.080501	-0.002496	 0.160144
					CHANNELS 3 Zrotation Xrotation Yrotation
					JOINT LeftArm
					{
						OFFSET	 0.000000	 0.000000	 0.164363
						CHANNELS 3 Zrotation Xrotation Yrotation
						JOINT LeftForeArm
						{
							OFFSET	 0.000000	 0.000000	 0.364576
							CHANNELS 3 Zrotation Xrotation Yrotation
							JOINT LeftHand
							{
								OFFSET	 0.000000	 0.000000	 0.360812
								CHANNELS 3 Zrotation Xrotation Yrotation
								JOINT LeftHandIndex1
								{
									OFFSET	 0.000000	 0.000000	 0.086006
									CHANNELS 3 Zrotation Xrotation Yrotation
									JOINT LeftHandIndex2
									{
										OFFSET	 0.000000	 0.000000	 0.047236
										CHANNELS 3 Zrotation Xrotation Yrotation
										JOINT LeftHandIndex3
										{
											OFFSET	-0.004284	-0.000551	 0.038166
											CHANNELS 3 Zrotation Xrotation Yrotation
											End Site
											{
												OFFSET	-0.004284	-0.000551	 0.038166
											}
										}
									}
								}
							}
						}
					}
				}
				JOINT Neck
				{
					OFFSET	 0.000000	 0.000000	 0.176489
					CHANNELS 3 Zrotation Xrotation Yrotation
					JOINT Head
					{
						OFFSET	 0.000000	-0.001747	 0.077940
						CHANNELS 3 Zrotation Xrotation Yrotation
						End Site
						{
							OFFSET	 0.000000	-0.001747	 0.077940
						}
					}
				}
				JOINT RightShoulder
				{
					OFFSET	-0.080363	 0.000306	 0.159706
					CHANNELS 3 Zrotation Xrotation Yrotation
					JOINT RightArm
					{
						OFFSET	 0.000000	 0.000000	 0.164196
						CHANNELS 3 Zrotation Xrotation Yrotation
						JOINT RightForeArm
						{
							OFFSET	 0.000000	 0.000000	 0.365611
							CHANNELS 3 Zrotation Xrotation Yrotation
							JOINT RightHand
							{
								OFFSET	 0.000000	 0.000000	 0.360648
								CHANNELS 3 Zrotation Xrotation Yrotation
								JOINT RightHandIndex1
								{
									OFFSET	 0.000000	 0.000000	 0.069977
									CHANNELS 3 Zrotation Xrotation Yrotation
									JOINT RightHandIndex2
									{
										OFFSET	 0.000000	 0.000000	 0.052305
										CHANNELS 3 Zrotation Xrotation Yrotation
										JOINT RightHandIndex3
										{
											OFFSET	 0.009002	-0.000782	 0.042196
											CHANNELS 3 Zrotation Xrotation Yrotation
											End Site
											{
												OFFSET	 0.009002	-0.000782	 0.042196
											}
										}
									}
								}
							}
						}
					}
				}
			}
		}
	}
}
MOTION
Frames:    12
Frame Time: 0.03333334
 6.426660	 3.937369	 1.138805	 176.783300	-2.316751	-1.131438	 7.249059	 20.035630	-176.765700	-3.577767	-11.633170	 1.467082	 3.483865	 84.289830	-0.167075	-2.307376	 39.157190	-0.253261	 4.849736	-35.602050	-177.962100	 1.560471	-44.282300	 5.462047	 103.220200	 89.861520	-97.299130	 2.372400	 30.833200	 0.053800	-8.008192	 3.824486	 2.449679	-12.804520	-0.418506	 0.258951	-15.165370	-2.313847	-1.808787	-91.776180	 78.527400	-180.000000	 35.594860	 60.595840	-53.612420	-8.959554	-4.960227	-35.688700	 0.759205	-31.584550	-6.301895	-3.812334	 37.924440	-2.927599	-2.450526	 36.184240	 0.754587	-1.378229	 35.397820	-2.634230	 1.215149	 2.150505	-4.949780	-2.515787	-9.653584	 2.662819	 89.782120	 78.203870	 180.000000	-38.097820	 71.940030	 35.601810	 0.076984	-6.839996	 22.261200	-7.897643	-32.418630	 11.331770	 6.437017	 35.671460	-0.771858	 2.830251	 35.756010	-7.813440	-2.350882	 35.473990	 5.254307
 6.431614	 3.993480	 1.136836	 177.289800	-1.939537	-1.300678	 7.441010	 22.332080	-177.135300	-3.413405	-11.624320	 1.536142	 4.201787	 84.384700	-0.568491	-2.272158	 42.121660	-0.334045	 5.232190	-36.063310	-177.500400	-0.142261	-38.988300	 3.874522	 150.602100	 89.477360	-145.343000	 2.362867	 32.412140	 0.089635	-8.113644	 3.565914	 2.221633	-12.867840	-0.605093	 0.138615	-15.177590	-2.516788	-1.882795	-91.776180	 78.527400	 180.000000	 36.360360	 60.579000	-54.731450	-9.073204	-4.976180	-36.672140	 0.793014	-30.335470	-6.215274	-3.812334	 37.924440	-2.927599	-2.450526	 36.184240	 0.754587	-1.378229	 35.397820	-2.634230	 1.227767	 2.140142	-4.994811	-2.470542	-9.850338	 3.197882	 89.782100	 78.203870	-180.000000	-36.756380	 72.723890	 34.048060	 0.301975	-6.730041	 21.164660	-8.662180	-31.182160	 11.165770	 6.437017	 35.671460	-0.771858	 2.830251	 35.756010	-7.813440	-2.350882	 35.473990	 5.254307
 6.439648	 4.070921	 1.134226	 177.994700	-2.005015	-1.324084	 7.900352	 25.556360	-178.365200	-2.606027	-11.600100	 1.711159	 5.347483	 82.883490	-0.786726	-2.211275	 46.175170	-0.455587	 4.883746	-35.614120	-177.519500	 0.433088	-37.985280	 3.953529	 141.236000	 89.573420	-135.673700	 2.365776	 31.952240	 0.079110	-8.286169	 3.449173	 1.939544	-12.927760	-0.713844	-0.127598	-15.063560	-2.593324	-1.972140	-91.776180	 78.527420	-180.000000	 38.011700	 61.353280	-55.806930	-9.138324	-4.967955	-36.363310	 1.030719	-28.703540	-6.114905	-3.812334	 37.924440	-2.927599	-2.450526	 36.184240	 0.754587	-1.378229	 35.397820	-2.634230	 1.305015	 2.115452	-5.056104	-2.361936	-9.941961	 3.815212	 89.782120	 78.203870	 180.000000	-35.387670	 73.438180	 32.536610	 0.258028	-6.570285	 19.689020	-9.713567	-29.594400	 10.962440	 6.437017	 35.671460	-0.771858	 2.830251	 35.756010	-7.813440	-2.350882	 35.473990	 5.254307
 6.451966	 4.166756	 1.131300	 178.898100	-2.201766	-1.223348	 8.700684	 29.235550	 179.344800	-1.317233	-11.566490	 1.927937	 5.874420	 77.855160	 0.080509	-2.129394	 50.342050	-0.598046	 4.460246	-33.505600	-178.219400	 2.586515	-40.964190	 5.575409	 10.620960	 89.028030	-3.826838	 2.380623	 29.261130	 0.018976	-8.561094	 3.166747	 1.769458	-13.006650	-0.720174	-0.523091	-14.755550	-2.319511	-2.093701	-91.776180	 78.527380	-180.000000	 40.487010	 62.943530	-56.059650	-9.011897	-4.822123	-34.297340	 1.350269	-26.780390	-6.010606	-3.812334	 37.924440	-2.927599	-2.450526	 36.184240	 0.754587	-1.378229	 35.397820	-2.634230	 1.519988	 2.643028	-5.127171	-2.170056	-10.175650	 4.306113	 89.782120	 78.203870	 180.000000	-33.598720	 73.964470	 30.375610	 0.084508	-6.384634	 18.302940	-10.766420	-27.734130	 10.745440	 6.437017	 35.671460	-0.771858	 2.830251	 35.756010	-7.813440	-2.350882	 35.473990	 5.254307
 6.463596	 4.255860	 1.131826	-179.857300	-2.433238	-1.025149	 9.583277	 32.234440	 176.983200	-1.196713	-11.448080	 1.878970	 5.225394	 68.680890	 1.206582	-2.109548	 51.201360	-0.630183	 2.958191	-31.217170	-179.098400	 4.600872	-44.332360	 6.628118	 3.450045	 85.940780	 3.515374	 2.390152	 27.052770	-0.028647	-8.885791	 2.922628	 1.287961	-13.120250	-0.654949	-0.801229	-14.529150	-2.125917	-2.259990	-91.776180	 78.527400	-180.000000	 42.973770	 64.941370	-55.829570	-8.469610	-4.822880	-30.725840	 2.250322	-25.010530	-5.919510	-3.812334	 37.924440	-2.927599	-2.450526	 36.184240	 0.754587	-1.378229	 35.397820	-2.634230	 1.658512	 3.047316	-4.993325	-2.047974	-10.045650	 4.360009	 89.782120	 78.203870	 180.000000	-32.000970	 74.184010	 28.325410	 0.181521	-6.215005	 17.634650	-11.240860	-25.996490	 10.570130	 6.437017	 35.671460	-0.771858	 2.830251	 35.756010	-7.813440	-2.350882	 35.473990	 5.254307
 6.479084	 4.332260	 1.139389	-178.645600	-2.731952	-1.519624	 7.394517	 21.517340	 176.052600	-1.115182	-34.579330	 1.591963	 2.773095	 63.270340	 0.389551	-2.201184	 46.753890	-0.474197	 1.714118	-29.238990	-179.255100	 5.448267	-47.600360	 6.962941	 3.416429	 84.004100	 2.949789	 2.401966	 23.027760	-0.112290	-8.823020	 2.350049	 1.769807	-13.092580	-0.534567	-0.840287	-14.513150	-1.684671	-2.202944	-91.776180	 78.527380	-180.000000	 44.513020	 67.224980	-55.346000	-8.115627	-4.764606	-25.812610	 3.605906	-23.213460	-5.829842	-3.812334	 37.924440	-2.927599	-2.450526	 36.184240	 0.754587	-1.378229	 35.397820	-2.634230	 1.670421	 2.976657	-4.778650	-2.012627	-9.535346	 4.080132	 89.782100	 78.203850	-180.000000	-32.656170	 73.880200	 29.462400	-0.017151	-6.060497	 17.120300	-11.621940	-24.211950	 10.407690	 6.437017	 35.671460	-0.771858	 2.830251	 35.756010	-7.813440	-2.350882	 35.473990	 5.254307
 6.495623	 4.415044	 1.148061	-177.241500	-3.179064	 0.849855	 7.529853	 11.296130	 171.174500	-2.884228	-55.013450	-1.171076	 0.135608	 54.830540	 1.100618	-2.356378	 33.606610	-0.115797	 0.531537	-23.750480	 177.411200	 6.728964	-47.238200	 7.000330	 2.660864	 85.068030	 3.901207	 2.407638	 18.003270	-0.212462	-9.212328	 3.670229	-0.646511	-12.986120	-0.479843	-1.376831	-13.955220	-2.122464	-2.400414	-91.776180	 78.527400	 180.000000	 43.226830	 69.961890	-52.175370	-8.758152	-4.426984	-20.836290	 4.809581	-21.249530	-5.723429	-3.812334	 37.924440	-2.927599	-2.450526	 36.184240	 0.754587	-1.378229	 35.397820	-2.634230	 1.467598	 2.901510	-4.610007	-2.199584	-9.099237	 3.362996	 89.782120	 78.203930	 180.000000	-34.743060	 72.792400	 32.845390	-0.732478	-5.962590	 16.773280	-12.050400	-22.199590	 10.249330	 6.437017	 35.671460	-0.771858	 2.830251	 35.756010	-7.813440	-2.350882	 35.473990	 5.254307
 6.507862	 4.481635	 1.154624	-175.793500	-3.146984	 2.574620	 5.424514	 1.982972	 169.497100	-5.707871	-68.255800	-6.211366	-1.085227	 58.761140	 0.468427	-2.350913	 34.352980	-0.133410	 0.211955	-19.311580	 174.983900	 7.519105	-45.476180	 6.881862	 1.004247	 87.018890	 6.002116	 2.407680	 17.694930	-0.218496	-9.388683	 4.046001	-2.344531	-12.949640	-0.469210	-1.720182	-14.056520	-2.675596	-2.451549	-91.776180	 78.527400	-180.000000	 41.202290	 71.566040	-49.304770	-10.070240	-3.886431	-17.737130	 4.863163	-19.518150	-5.638436	-3.812334	 37.924440	-2.927599	-2.450526	 36.184240	 0.754587	-1.378229	 35.397820	-2.634230	 1.212343	 2.971881	-4.445007	-2.371743	-9.476418	 2.721951	 89.782140	 78.203830	 180.000000	-37.353590	 71.352830	 37.913120	-1.265870	-5.978651	 16.855950	-12.364420	-20.419930	 10.123760	 6.437017	 35.671460	-0.771858	 2.830251	 35.756010	-7.813440	-2.350882	 35.473990	 5.254307
 6.518850	 4.552076	 1.159062	-175.240500	-3.152063	 2.956203	 2.551577	-7.334186	 170.611300	-6.386377	-75.447460	-8.996290	-1.046657	 66.846830	 0.100416	-2.311800	 38.737670	-0.242295	 0.600060	-15.450780	 173.944000	 7.516369	-44.667510	 6.814407	-27.112800	 89.729480	 34.377670	 2.407593	 18.197450	-0.208659	-8.781008	 4.203588	-2.654987	-12.448810	-0.473306	-1.508359	-14.145960	-2.905426	-2.133625	-91.776180	 78.527400	-180.000000	 38.319030	 72.300000	-45.002990	-10.174460	-3.764701	-16.417430	 5.381413	-17.493520	-5.561513	-3.812334	 37.924440	-2.927599	-2.450526	 36.184240	 0.754587	-1.378229	 35.397820	-2.634230	 0.813082	 2.980580	-4.149707	-2.649447	-9.510991	 1.579045	 89.782120	 78.203870	 180.000000	-38.787660	 69.446130	 42.596820	-1.553364	-6.183986	 17.632790	-12.641670	-18.377770	 10.006140	 6.437017	 35.671460	-0.771858	 2.830251	 35.756010	-7.813440	-2.350882	 35.473990	 5.254307
 6.527299	 4.632758	 1.158239	-175.205900	-2.835654	 4.516061	 0.672569	-15.463590	 171.318900	-9.725145	-75.215710	-13.169180	-2.189494	 78.044720	-0.567615	-2.285916	 41.032820	-0.303670	 0.683871	-11.187580	 172.018100	 7.207201	-44.352730	 6.221585	-173.346500	 87.620930	-179.792400	 2.405934	 20.569940	-0.161769	-7.838338	 4.511814	-4.516519	-11.497520	-0.556068	-1.461238	-14.193840	-3.602445	-1.652439	-91.776180	 78.527400	-180.000000	 37.312930	 72.423770	-41.067990	-9.818549	-3.870620	-18.139750	 5.062965	-15.099720	-5.511322	-3.812334	 37.924440	-2.927599	-2.450526	 36.184240	 0.754587	-1.378229	 35.397820	-2.634230	 0.296344	 3.019968	-3.738297	-2.958731	-9.068006	 0.572061	 89.782120	 78.203870	 180.000000	-39.163030	 66.728920	 45.979730	-1.306248	-6.648188	 20.589080	-11.940320	-16.000480	 9.918372	 6.437017	 35.671460	-0.771858	 2.830251	 35.756010	-7.813440	-2.350882	 35.473990	 5.254307
 6.531272	 4.676209	 1.153589	-175.344100	-2.645929	 5.224757	-0.127643	-19.803290	 171.726500	-11.940950	-71.965940	-15.331440	-3.481303	 82.527240	-1.041939	-2.278869	 41.600600	-0.319403	 0.620747	-9.380055	 171.209900	 6.935074	-44.453450	 5.805704	-174.437000	 86.033550	-179.061800	 2.405327	 21.065010	-0.151886	-7.329759	 4.543864	-5.317797	-10.936220	-0.793360	-1.508174	-13.962140	-3.932079	-1.417771	-91.776180	 78.527400	 180.000000	 36.200450	 72.715330	-38.211620	-10.136330	-3.918274	-19.759610	 4.611130	-13.763690	-5.491564	-3.812334	 37.924440	-2.927599	-2.450526	 36.184240	 0.754587	-1.378229	 35.397820	-2.634230	 0.084036	 3.029888	-3.603999	-3.055141	-8.858684	 0.457934	 89.782140	 78.203830	 180.000000	-38.709470	 65.191020	 46.789150	-0.911684	-6.970052	 23.095780	-11.286990	-14.675950	 9.881021	 6.437017	 35.671460	-0.771858	 2.830251	 35.756010	-7.813440	-2.350882	 35.473990	 5.254307
 6.536142	 4.742311	 1.146487	-175.449400	-2.184796	 5.966441	-0.606044	-24.608210	 172.442600	-11.222580	-63.620180	-13.656730	-4.739624	 86.352670	-1.830618	-2.275979	 41.827040	-0.325741	 0.749778	-5.916579	 170.279400	 6.591824	-43.309660	 5.188241	-174.463300	 84.051900	-179.285700	 2.403673	 22.141570	-0.130250	-6.693412	 4.572211	-6.132258	-10.150830	-1.250380	-1.561650	-13.411740	-4.486285	-1.174496	-91.776180	 78.527400	-180.000000	 33.295540	 73.413520	-33.125630	-11.026410	-3.990405	-22.095550	 4.124282	-11.794280	-5.461941	-3.812334	 37.924440	-2.927599	-2.450526	 36.184240	 0.754587	-1.378229	 35.397820	-2.634230	-0.018563	 3.097124	-3.528864	-3.045141	-9.091263	 0.489283	 89.782120	 78.203870	 180.000000	-37.560390	 63.109280	 47.486530	-0.067636	-7.460345	 27.404880	-10.384980	-12.724390	 9.823710	 6.437017	 35.671460	-0.771858	 2.830251	 35.756010	-7.813440	-2.350882	 35.473990	 5.254307
